<svg xmlns="http://www.w3.org/2000/svg" width="249" height="314" viewBox="0 0 249 314" version="1.1"><path d="M 4.196 5.298 L 1 8.595 1 29.247 L 1 49.898 4.344 52.449 C 7.334 54.730, 8.606 55, 16.344 55 L 25 55 25 62.202 L 25 69.404 13.500 80.904 L 2 92.404 2 190.631 L 2 288.857 15.250 301.071 L 28.500 313.286 122.287 312.705 L 216.074 312.124 229.037 299.927 L 242 287.730 242 190.073 L 242 92.416 230.500 80.086 L 219 67.757 219 61.879 L 219 56 229.927 56 L 240.854 56 243.773 52.459 L 246.691 48.919 247.378 29.781 L 248.065 10.642 243.825 6.321 L 239.584 2 123.488 2 L 7.392 2 4.196 5.298 M 25.874 21.730 L 21.249 22.099 20.564 29.048 C 20.187 32.869, 20.158 36.447, 20.499 36.998 C 20.847 37.562, 25.604 38, 31.385 38 C 46.353 38, 46.001 37.444, 45.998 61.064 L 45.996 79.500 34.498 91.663 L 23 103.826 23.022 187.663 L 23.044 271.500 32.613 281.750 L 42.182 292 120.668 292 L 199.155 292 209.957 282.766 L 220.758 273.531 221.504 188.542 L 222.250 103.553 211.094 93.027 L 199.938 82.500 199.969 60.750 L 200 39 212.500 39 L 225 39 225 29.979 L 225 20.959 204.750 21.229 L 184.500 21.500 184.282 55.500 L 184.064 89.500 194.387 98.985 L 204.710 108.470 205.351 122.485 C 205.704 130.193, 205.994 163.011, 205.996 195.412 L 206 254.325 202.996 259.007 L 199.992 263.688 123.992 264.408 L 47.993 265.128 43.497 261.444 L 39 257.759 39.055 183.130 L 39.110 108.500 50.055 98.658 L 61 88.816 61 54.908 L 61 21 45.750 21.180 C 37.362 21.279, 28.418 21.527, 25.874 21.730 M 91.264 36.250 L 80.061 47.500 80.781 65.667 L 81.500 83.835 99.750 102.826 L 118 121.818 118 133.409 L 118 145 126.500 145 L 135 145 135 129.650 L 135 114.299 116.547 94.900 L 98.094 75.500 98.047 64.162 L 98 52.824 105.250 45.954 L 112.500 39.084 125.017 39.042 L 137.534 39 142.767 43.578 L 148 48.155 147.957 57.328 L 147.915 66.500 143.050 70.250 C 140.374 72.313, 137.897 74, 137.545 74 C 137.192 74, 135.815 72.763, 134.484 71.250 C 132.664 69.182, 132.055 67.321, 132.032 63.750 L 132 59 124.150 59 L 116.299 59 115.645 68.222 L 114.990 77.443 122.090 84.591 L 129.190 91.738 138.345 91.305 L 147.500 90.872 154.612 83.353 L 161.725 75.833 162.249 59.167 C 162.537 50, 162.486 42.009, 162.136 41.409 C 161.786 40.809, 157.675 36.878, 153 32.673 L 144.500 25.029 123.484 25.015 L 102.467 25 91.264 36.250 M 60.136 157.745 L 52.772 158.092 53.488 201.296 L 54.204 244.500 57.298 247.750 L 60.392 251 121.661 251 L 182.930 251 186.465 247.896 L 190 244.793 190 200.896 L 190 157 128.750 157.199 C 95.063 157.308, 64.186 157.554, 60.136 157.745" stroke="none" fill="#040504" fill-rule="evenodd"/><path d="M 25.874 21.730 L 21.249 22.099 20.564 29.048 C 20.187 32.869, 20.158 36.447, 20.499 36.998 C 20.847 37.562, 25.604 38, 31.385 38 C 46.353 38, 46.001 37.444, 45.998 61.064 L 45.996 79.500 34.498 91.663 L 23 103.826 23.022 187.663 L 23.044 271.500 32.613 281.750 L 42.182 292 120.668 292 L 199.155 292 209.957 282.766 L 220.758 273.531 221.504 188.542 L 222.250 103.553 211.094 93.027 L 199.938 82.500 199.969 60.750 L 200 39 212.500 39 L 225 39 225 29.979 L 225 20.959 204.750 21.229 L 184.500 21.500 184.282 55.500 L 184.064 89.500 194.387 98.985 L 204.710 108.470 205.351 122.485 C 205.704 130.193, 205.994 163.011, 205.996 195.412 L 206 254.325 202.996 259.007 L 199.992 263.688 123.992 264.408 L 47.993 265.128 43.497 261.444 L 39 257.759 39.055 183.130 L 39.110 108.500 50.055 98.658 L 61 88.816 61 54.908 L 61 21 45.750 21.180 C 37.362 21.279, 28.418 21.527, 25.874 21.730 M 91.264 36.250 L 80.061 47.500 80.781 65.667 L 81.500 83.835 99.750 102.826 L 118 121.818 118 133.409 L 118 145 126.500 145 L 135 145 135 129.650 L 135 114.299 116.547 94.900 L 98.094 75.500 98.047 64.162 L 98 52.824 105.250 45.954 L 112.500 39.084 125.017 39.042 L 137.534 39 142.767 43.578 L 148 48.155 147.957 57.328 L 147.915 66.500 143.050 70.250 C 140.374 72.313, 137.897 74, 137.545 74 C 137.192 74, 135.815 72.763, 134.484 71.250 C 132.664 69.182, 132.055 67.321, 132.032 63.750 L 132 59 124.150 59 L 116.299 59 115.645 68.222 L 114.990 77.443 122.090 84.591 L 129.190 91.738 138.345 91.305 L 147.500 90.872 154.612 83.353 L 161.725 75.833 162.249 59.167 C 162.537 50, 162.486 42.009, 162.136 41.409 C 161.786 40.809, 157.675 36.878, 153 32.673 L 144.500 25.029 123.484 25.015 L 102.467 25 91.264 36.250 M 60.136 157.745 L 52.772 158.092 53.488 201.296 L 54.204 244.500 57.298 247.750 L 60.392 251 121.661 251 L 182.930 251 186.465 247.896 L 190 244.793 190 200.896 L 190 157 128.750 157.199 C 95.063 157.308, 64.186 157.554, 60.136 157.745" stroke="none" fill="#fb0000" fill-rule="evenodd"/></svg>